# xmcd
#
# Track frame offsets: 
#        150
#        32470
#        49301
#        67276
#        90409
#        141925
#        214297
#        221973
#
# Disc length: 3285 seconds
#
# Revision: 0
# Processed by: cddbd v1.5.2PL0 Copyright (c) Steve Scherf et al.
# Submitted via: ExactAudioCopy v0.99pb4
#
DISCID=800cd308
DTITLE=Yonder Mountain String Band - Live At The Fox Theatre, Boulder,
DTITLE=CO 12-31-2000
DYEAR=2000
DGENRE=Bluegrass
TTITLE0=Yes She Do, No She Don't
TTITLE1=Don't Let Your Deal Go Down
TTITLE2=Pow Wow The Indian Boy
TTITLE3=Good Hearted Woman
TTITLE4=New Horizons
TTITLE5=On The Run
TTITLE6=Banter
TTITLE7=Let Me Fall
EXTD=
EXTT0=
EXTT1=
EXTT2=
EXTT3=
EXTT4=
EXTT5=
EXTT6=
EXTT7=
PLAYORDER=
